<svg width="43" height="33" viewBox="0 0 43 33" fill="none" xmlns="http://www.w3.org/2000/svg">
<g clip-path="url(#clip0_43_1211)">
<path fill-rule="evenodd" clip-rule="evenodd" d="M0 0.39209H60.8V2.85462H0V0.39209ZM0 5.31709H60.8V7.77962H0V5.31709ZM0 10.2358H60.8V12.7046H0V10.2358ZM0 15.1608H60.8V17.6234H0V15.1608ZM0 20.0858H60.8V22.5484H0V20.0858ZM0 25.0046H60.8V27.4671H0V25.0046ZM0 29.9296H60.8V32.3921H0V29.9296Z" fill="#BD3D44"/>
<path fill-rule="evenodd" clip-rule="evenodd" d="M0 2.85449H60.8V5.31696H0V2.85449ZM0 7.77942H60.8V10.2357H0V7.77942ZM0 12.6982H60.8V15.1607H0V12.6982ZM0 17.6232H60.8V20.0857H0V17.6232ZM0 22.5482H60.8V25.0107H0V22.5482ZM0 27.467H60.8V29.9295H0V27.467Z" fill="white"/>
<path fill-rule="evenodd" clip-rule="evenodd" d="M0 0.39209H24.3187V17.6234H0V0.39209Z" fill="#192F5D"/>
<path fill-rule="evenodd" clip-rule="evenodd" d="M2.02511 1.12939L2.25011 1.81053H2.96265L2.38758 2.22933L2.60638 2.91679L2.02511 2.49179L1.45011 2.91053L1.66885 2.22933L1.08765 1.81053H1.81265L2.02511 1.12939ZM6.08138 1.12939L6.30011 1.81053H7.01885L6.43758 2.22933L6.65638 2.91679L6.08138 2.49179L5.50011 2.91053L5.71885 2.22933L5.14385 1.81053H5.85638L6.08138 1.12939ZM10.1314 1.12939L10.3564 1.81059H11.0626L10.4876 2.22939L10.7063 2.91686L10.1251 2.49186L9.55011 2.91059L9.76885 2.22939L9.18758 1.81059H9.90638L10.1314 1.12939ZM14.1876 1.12939L14.4063 1.81059H15.1251L14.5438 2.22939L14.7688 2.91686L14.1876 2.49186L13.6064 2.91059L13.8314 2.22939L13.2501 1.81059H13.9626L14.1876 1.12939ZM18.2376 1.12939L18.4626 1.81059H19.1751L18.6001 2.22939L18.8188 2.91686L18.2376 2.49186L17.6626 2.91059L17.8814 2.22939L17.3064 1.81059H18.0188L18.2376 1.12939ZM22.2938 1.12939L22.5126 1.81059H23.2314L22.6501 2.22939L22.8751 2.91686L22.2938 2.49186L21.7126 2.91059L21.9376 2.22939L21.3564 1.81059H22.0751L22.2938 1.12939ZM4.05638 2.85426L4.27511 3.53559H4.99385L4.41258 3.95426L4.62511 4.63559L4.06258 4.21679L3.48138 4.63553L3.68758 3.95433L3.12511 3.53553H3.83765L4.05638 2.85426ZM8.10638 2.85426L8.33138 3.53559H9.04385L8.46258 3.95426L8.68765 4.63559L8.10631 4.21679L7.52511 4.63553L7.75011 3.95433L7.16885 3.53553H7.88758L8.10638 2.85426ZM12.1626 2.85426L12.3813 3.53559H13.1001L12.5188 3.95426L12.7376 4.63559L12.1626 4.21679L11.5814 4.63553L11.8001 3.95439L11.2251 3.53559H11.9376L12.1626 2.85426ZM16.2126 2.85426L16.4376 3.53559H17.1501L16.5688 3.95426L16.7938 4.63559L16.2126 4.21679L15.6376 4.63553L15.8564 3.95433L15.2751 3.53553H16.0001L16.2126 2.85426ZM20.2688 2.85426L20.4876 3.53559H21.2064L20.6251 3.95426L20.8438 4.63559L20.2688 4.21679L19.6876 4.63553L19.9064 3.95433L19.3314 3.53553H20.0438L20.2688 2.85426ZM2.02511 4.57319L2.25011 5.26693H2.96265L2.38758 5.68566L2.60638 6.36693L2.02511 5.94193L1.45011 6.36693L1.66885 5.67939L1.08765 5.26073H1.81265L2.02511 4.57319ZM6.08138 4.57319L6.30011 5.26053H7.01885L6.43758 5.67926L6.65638 6.36059L6.08138 5.93553L5.50011 6.36053L5.71885 5.67306L5.14385 5.25433H5.85638L6.08138 4.57319ZM10.1314 4.57319L10.3564 5.26066H11.0626L10.4876 5.67939L10.7063 6.36073L10.1251 5.93566L9.55011 6.36066L9.76885 5.67319L9.18758 5.25446H9.90638L10.1314 4.57319ZM14.1876 4.57319L14.4063 5.26066H15.1251L14.5438 5.67939L14.7688 6.36073L14.1876 5.93566L13.6064 6.36066L13.8314 5.67319L13.2501 5.25446H13.9626L14.1876 4.57319ZM18.2376 4.57319L18.4626 5.26066H19.1751L18.6001 5.67933L18.8188 6.36066L18.2376 5.9356L17.6626 6.36059L17.8814 5.67313L17.3064 5.2544H18.0188L18.2376 4.57319ZM22.2938 4.57319L22.5126 5.26066H23.2314L22.6501 5.67939L22.8751 6.36073L22.2938 5.93566L21.7126 6.36066L21.9376 5.67319L21.3564 5.25446H22.0751L22.2938 4.57319ZM4.05638 6.29813L4.27511 6.97939H4.99385L4.41258 7.39806L4.63138 8.0856L4.05638 7.66059L3.47511 8.07933L3.69385 7.39813L3.11885 6.97939H3.83145L4.05638 6.29813ZM8.10638 6.29813L8.33138 6.97939H9.04385L8.46258 7.39806L8.68765 8.0856L8.10631 7.66059L7.52511 8.07933L7.75011 7.39813L7.16885 6.97939H7.88758L8.10638 6.29813ZM12.1626 6.29813L12.3813 6.97939H13.1001L12.5188 7.39806L12.7376 8.0856L12.1626 7.66059L11.5814 8.07933L11.8001 7.39813L11.2251 6.97939H11.9376L12.1626 6.29813ZM16.2126 6.29813L16.4376 6.97939H17.1501L16.5751 7.39806L16.7938 8.0856L16.2126 7.66059L15.6376 8.07933L15.8564 7.39813L15.2751 6.97939H16.0001L16.2126 6.29813ZM20.2688 6.29813L20.4876 6.97939H21.2064L20.6251 7.39806L20.8438 8.0856L20.2688 7.66059L19.6876 8.07933L19.9064 7.39813L19.3314 6.97939H20.0438L20.2688 6.29813ZM2.02511 8.02313L2.25011 8.70439H2.96265L2.38758 9.12306L2.60638 9.8106L2.02511 9.3856L1.45011 9.80433L1.66885 9.12313L1.08765 8.70439H1.81265L2.02511 8.02313ZM6.08138 8.02313L6.30011 8.70439H7.01885L6.43758 9.12306L6.65638 9.80439L6.08138 9.3856L5.50011 9.80433L5.71885 9.12313L5.14385 8.70439H5.85638L6.08138 8.02313ZM10.1314 8.02313L10.3564 8.70439H11.0626L10.4876 9.12306L10.7063 9.8106L10.1251 9.3856L9.55011 9.80433L9.76885 9.12313L9.18758 8.70439H9.90638L10.1314 8.02313ZM14.1876 8.02313L14.4063 8.70439H15.1251L14.5438 9.12306L14.7688 9.8106L14.1876 9.3856L13.6064 9.80433L13.8314 9.12313L13.2501 8.70439H13.9626L14.1876 8.02313ZM18.2376 8.02313L18.4626 8.70439H19.1751L18.6001 9.12306L18.8188 9.8106L18.2376 9.3856L17.6626 9.80433L17.8814 9.12313L17.3064 8.70439H18.0188L18.2376 8.02313ZM22.2938 8.02313L22.5126 8.70439H23.2314L22.6501 9.12306L22.8751 9.8106L22.2938 9.3856L21.7126 9.80433L21.9376 9.12313L21.3564 8.70439H22.0751L22.2938 8.02313ZM4.05638 9.74813L4.27511 10.4294H4.99385L4.41258 10.8481L4.63138 11.5294L4.05638 11.1044L3.47511 11.5294L3.69385 10.8419L3.11885 10.4231H3.83145L4.05638 9.74813ZM8.10638 9.74813L8.33138 10.4294H9.04385L8.46258 10.8481L8.68765 11.5294L8.10631 11.1044L7.52511 11.5294L7.75011 10.8419L7.16885 10.4231H7.88758L8.10638 9.74813ZM12.1626 9.74813L12.3813 10.4294H13.1001L12.5188 10.8481L12.7376 11.5294L12.1626 11.1044L11.5814 11.5294L11.8001 10.8419L11.2251 10.4231H11.9376L12.1626 9.74813ZM16.2126 9.74813L16.4376 10.4294H17.1501L16.5751 10.8481L16.7938 11.5294L16.2126 11.1044L15.6376 11.5294L15.8564 10.8419L15.2751 10.4231H16.0001L16.2126 9.74813ZM20.2688 9.74813L20.4876 10.4294H21.2064L20.6251 10.8481L20.8438 11.5294L20.2688 11.1044L19.6876 11.5294L19.9064 10.8419L19.3314 10.4231H20.0438L20.2688 9.74813ZM2.02511 11.4669L2.25011 12.1544H2.96265L2.38758 12.5731L2.60638 13.2481L2.02511 12.8294L1.45011 13.2481L1.66885 12.5669L1.08765 12.1481H1.81265L2.02511 11.4669ZM6.08138 11.4669L6.30011 12.1544H7.01885L6.43758 12.5731L6.66265 13.2481L6.08131 12.8294L5.50011 13.2481L5.72511 12.5669L5.14385 12.1481H5.85638L6.08138 11.4669ZM10.1314 11.4669L10.3564 12.1544H11.0626L10.4876 12.5731L10.7063 13.2481L10.1251 12.8294L9.55011 13.2481L9.76885 12.5669L9.18758 12.1481H9.90638L10.1314 11.4669ZM14.1876 11.4669L14.4063 12.1544H15.1251L14.5438 12.5731L14.7688 13.2481L14.1876 12.8294L13.6064 13.2481L13.8314 12.5669L13.2501 12.1481H13.9626L14.1876 11.4669ZM18.2376 11.4669L18.4626 12.1544H19.1751L18.6001 12.5731L18.8188 13.2481L18.2376 12.8294L17.6626 13.2481L17.8814 12.5669L17.3064 12.1481H18.0188L18.2376 11.4669ZM22.2938 11.4669L22.5126 12.1544H23.2314L22.6501 12.5731L22.8751 13.2481L22.2938 12.8294L21.7126 13.2481L21.9376 12.5669L21.3564 12.1481H22.0751L22.2938 11.4669ZM4.05638 13.1919L4.27511 13.8731H4.99385L4.41258 14.2919L4.63138 14.9794L4.05638 14.5544L3.47511 14.9731L3.69385 14.2919L3.11885 13.8731H3.83145L4.05638 13.1919ZM8.10638 13.1919L8.33138 13.8731H9.04385L8.46258 14.2919L8.68765 14.9794L8.10631 14.5544L7.52511 14.9731L7.75011 14.2919L7.16885 13.8731H7.88758L8.10638 13.1919ZM12.1626 13.1919L12.3813 13.8731H13.1001L12.5188 14.2919L12.7376 14.9794L12.1626 14.5544L11.5814 14.9731L11.8001 14.2919L11.2251 13.8731H11.9376L12.1626 13.1919ZM16.2126 13.1919L16.4376 13.8731H17.1501L16.5751 14.2919L16.7938 14.9794L16.2126 14.5544L15.6376 14.9731L15.8564 14.2919L15.2751 13.8731H16.0001L16.2126 13.1919ZM20.2688 13.1919L20.4876 13.8731H21.2064L20.6251 14.2919L20.8438 14.9794L20.2688 14.5544L19.6876 14.9731L19.9064 14.2919L19.3314 13.8731H20.0438L20.2688 13.1919ZM2.02511 14.9169L2.25011 15.5981H2.96265L2.38758 16.0169L2.60638 16.6981L2.02511 16.2794L1.45011 16.6981L1.66885 16.0106L1.08765 15.5919H1.81265L2.02511 14.9169ZM6.08138 14.9169L6.30011 15.5981H7.01885L6.43758 16.0169L6.66265 16.6981L6.08131 16.2794L5.50011 16.6981L5.72511 16.0106L5.14385 15.5919H5.85638L6.08138 14.9169ZM10.1314 14.9169L10.3564 15.5981H11.0626L10.5001 16.0169L10.7188 16.6981L10.1376 16.2794L9.56258 16.6981L9.78138 16.0106L9.20011 15.5919H9.91885L10.1314 14.9169ZM14.1876 14.9169L14.4063 15.5981H15.1251L14.5438 16.0169L14.7688 16.6981L14.1876 16.2794L13.6064 16.6981L13.8314 16.0106L13.2501 15.5919H13.9626L14.1876 14.9169ZM18.2376 14.9169L18.4626 15.5981H19.1751L18.6001 16.0169L18.8188 16.6981L18.2376 16.2794L17.6626 16.6981L17.8814 16.0106L17.3064 15.5919H18.0188L18.2376 14.9169ZM22.2938 14.9169L22.5126 15.5981H23.2314L22.6501 16.0169L22.8751 16.6981L22.2938 16.2794L21.7126 16.6981L21.9376 16.0106L21.3564 15.5919H22.0751L22.2938 14.9169Z" fill="white"/>
</g>
<defs>
<clipPath id="clip0_43_1211">
<rect y="0.39209" width="42.6667" height="32" rx="6" fill="white"/>
</clipPath>
</defs>
</svg>
