<svg width="41" height="41" viewBox="0 0 41 41" fill="none" xmlns="http://www.w3.org/2000/svg">
<path d="M15.5001 17.1667C17.341 17.1667 18.8334 15.6743 18.8334 13.8333C18.8334 11.9924 17.341 10.5 15.5001 10.5C13.6591 10.5 12.1667 11.9924 12.1667 13.8333C12.1667 15.6743 13.6591 17.1667 15.5001 17.1667Z" stroke="#292D32" stroke-width="1.5" stroke-linecap="round" stroke-linejoin="round"/>
<path d="M22.1666 3.8335H15.4999C7.16659 3.8335 3.83325 7.16683 3.83325 15.5002V25.5002C3.83325 33.8335 7.16659 37.1668 15.4999 37.1668H25.4999C33.8333 37.1668 37.1666 33.8335 37.1666 25.5002V17.1668" stroke="#292D32" stroke-width="1.5" stroke-linecap="round" stroke-linejoin="round"/>
<path d="M26.75 8.8335H35.9167" stroke="#292D32" stroke-width="1.5" stroke-linecap="round"/>
<path d="M31.3333 13.4167V4.25" stroke="#292D32" stroke-width="1.5" stroke-linecap="round"/>
<path d="M4.94995 32.0831L13.1666 26.5664C14.4833 25.6831 16.3833 25.7831 17.5666 26.7998L18.1166 27.2831C19.4166 28.3998 21.5166 28.3998 22.8166 27.2831L29.75 21.3331C31.05 20.2164 33.15 20.2164 34.45 21.3331L37.1666 23.6664" stroke="#292D32" stroke-width="1.5" stroke-linecap="round" stroke-linejoin="round"/>
</svg>
